<mxfile host="app.diagrams.net" modified="2023-11-17T09:38:36.080Z" agent="Mozilla/5.0 (Windows NT 10.0; Win64; x64) AppleWebKit/537.36 (KHTML, like Gecko) Chrome/112.0.0.0 YaBrowser/23.5.3.904 Yowser/2.5 Safari/537.36" etag="15X1Fsl2eRFX9jWx6oYP" version="22.1.2" type="device">
  <diagram name="Страница — 1" id="nCRjQZqe7ZdRJePbFz9e">
    <mxGraphModel dx="1795" dy="1103" grid="1" gridSize="10" guides="1" tooltips="1" connect="1" arrows="1" fold="1" page="1" pageScale="1" pageWidth="827" pageHeight="1169" math="0" shadow="0">
      <root>
        <mxCell id="0" />
        <mxCell id="1" parent="0" />
        <mxCell id="gnYcMqu5lkD7bBxtje_X-1" value="" style="endArrow=classic;html=1;rounded=0;" parent="1" edge="1">
          <mxGeometry width="50" height="50" relative="1" as="geometry">
            <mxPoint x="80" y="560" as="sourcePoint" />
            <mxPoint x="80" y="80" as="targetPoint" />
          </mxGeometry>
        </mxCell>
        <mxCell id="gnYcMqu5lkD7bBxtje_X-2" value="" style="endArrow=classic;html=1;rounded=0;" parent="1" edge="1">
          <mxGeometry width="50" height="50" relative="1" as="geometry">
            <mxPoint x="80" y="560" as="sourcePoint" />
            <mxPoint x="600" y="560" as="targetPoint" />
          </mxGeometry>
        </mxCell>
        <mxCell id="gnYcMqu5lkD7bBxtje_X-3" value="" style="endArrow=classic;html=1;rounded=0;" parent="1" edge="1">
          <mxGeometry width="50" height="50" relative="1" as="geometry">
            <mxPoint x="80" y="390" as="sourcePoint" />
            <mxPoint x="600" y="390" as="targetPoint" />
          </mxGeometry>
        </mxCell>
        <mxCell id="gnYcMqu5lkD7bBxtje_X-4" value="" style="endArrow=classic;html=1;rounded=0;" parent="1" edge="1">
          <mxGeometry width="50" height="50" relative="1" as="geometry">
            <mxPoint x="80" y="200" as="sourcePoint" />
            <mxPoint x="600" y="200" as="targetPoint" />
          </mxGeometry>
        </mxCell>
        <mxCell id="gnYcMqu5lkD7bBxtje_X-5" value="&lt;font style=&quot;font-size: 14px;&quot;&gt;SC&lt;/font&gt;" style="text;html=1;align=center;verticalAlign=middle;resizable=0;points=[];autosize=1;strokeColor=none;fillColor=none;" parent="1" vertex="1">
          <mxGeometry x="30" y="540" width="40" height="30" as="geometry" />
        </mxCell>
        <mxCell id="gnYcMqu5lkD7bBxtje_X-9" value="&lt;font style=&quot;font-size: 14px;&quot;&gt;t, 10&lt;sup&gt;-9&lt;/sup&gt;&lt;/font&gt;" style="text;html=1;align=center;verticalAlign=middle;resizable=0;points=[];autosize=1;strokeColor=none;fillColor=none;" parent="1" vertex="1">
          <mxGeometry x="600" y="180" width="60" height="30" as="geometry" />
        </mxCell>
        <mxCell id="gnYcMqu5lkD7bBxtje_X-10" value="&lt;font style=&quot;font-size: 14px;&quot;&gt;t, 10&lt;sup&gt;-9&lt;/sup&gt;&lt;/font&gt;" style="text;html=1;align=center;verticalAlign=middle;resizable=0;points=[];autosize=1;strokeColor=none;fillColor=none;" parent="1" vertex="1">
          <mxGeometry x="600" y="370" width="60" height="30" as="geometry" />
        </mxCell>
        <mxCell id="gnYcMqu5lkD7bBxtje_X-11" value="&lt;font style=&quot;font-size: 14px;&quot;&gt;t, 10&lt;sup&gt;-9&lt;/sup&gt;&lt;/font&gt;" style="text;html=1;align=center;verticalAlign=middle;resizable=0;points=[];autosize=1;strokeColor=none;fillColor=none;" parent="1" vertex="1">
          <mxGeometry x="600" y="540" width="60" height="30" as="geometry" />
        </mxCell>
        <mxCell id="gnYcMqu5lkD7bBxtje_X-12" value="DIV" style="rounded=0;whiteSpace=wrap;html=1;" parent="1" vertex="1">
          <mxGeometry x="80" y="530" width="64" height="30" as="geometry" />
        </mxCell>
        <mxCell id="gnYcMqu5lkD7bBxtje_X-13" value="ADD" style="rounded=0;whiteSpace=wrap;html=1;" parent="1" vertex="1">
          <mxGeometry x="144" y="530" width="60" height="30" as="geometry" />
        </mxCell>
        <mxCell id="gnYcMqu5lkD7bBxtje_X-14" value="" style="endArrow=none;html=1;rounded=0;" parent="1" edge="1">
          <mxGeometry width="50" height="50" relative="1" as="geometry">
            <mxPoint x="143.71" y="530" as="sourcePoint" />
            <mxPoint x="143.71" y="500" as="targetPoint" />
          </mxGeometry>
        </mxCell>
        <mxCell id="gnYcMqu5lkD7bBxtje_X-15" value="" style="endArrow=classic;startArrow=classic;html=1;rounded=0;" parent="1" edge="1">
          <mxGeometry width="50" height="50" relative="1" as="geometry">
            <mxPoint x="80" y="520" as="sourcePoint" />
            <mxPoint x="144" y="520" as="targetPoint" />
          </mxGeometry>
        </mxCell>
        <mxCell id="gnYcMqu5lkD7bBxtje_X-18" value="54" style="edgeLabel;html=1;align=center;verticalAlign=middle;resizable=0;points=[];" parent="gnYcMqu5lkD7bBxtje_X-15" vertex="1" connectable="0">
          <mxGeometry x="-0.052" y="-1" relative="1" as="geometry">
            <mxPoint x="2" y="-1" as="offset" />
          </mxGeometry>
        </mxCell>
        <mxCell id="gnYcMqu5lkD7bBxtje_X-16" value="" style="endArrow=none;html=1;rounded=0;" parent="1" edge="1">
          <mxGeometry width="50" height="50" relative="1" as="geometry">
            <mxPoint x="204" y="530" as="sourcePoint" />
            <mxPoint x="204" y="480" as="targetPoint" />
          </mxGeometry>
        </mxCell>
        <mxCell id="gnYcMqu5lkD7bBxtje_X-17" value="" style="endArrow=classic;startArrow=classic;html=1;rounded=0;" parent="1" edge="1">
          <mxGeometry width="50" height="50" relative="1" as="geometry">
            <mxPoint x="144" y="520" as="sourcePoint" />
            <mxPoint x="200" y="520" as="targetPoint" />
          </mxGeometry>
        </mxCell>
        <mxCell id="gnYcMqu5lkD7bBxtje_X-19" value="49" style="edgeLabel;html=1;align=center;verticalAlign=middle;resizable=0;points=[];" parent="gnYcMqu5lkD7bBxtje_X-17" vertex="1" connectable="0">
          <mxGeometry x="0.0014" y="1" relative="1" as="geometry">
            <mxPoint as="offset" />
          </mxGeometry>
        </mxCell>
        <mxCell id="gnYcMqu5lkD7bBxtje_X-20" value="" style="endArrow=classic;startArrow=classic;html=1;rounded=0;" parent="1" edge="1">
          <mxGeometry width="50" height="50" relative="1" as="geometry">
            <mxPoint x="80" y="490" as="sourcePoint" />
            <mxPoint x="204" y="490" as="targetPoint" />
          </mxGeometry>
        </mxCell>
        <mxCell id="gnYcMqu5lkD7bBxtje_X-21" value="54" style="edgeLabel;html=1;align=center;verticalAlign=middle;resizable=0;points=[];" parent="gnYcMqu5lkD7bBxtje_X-20" vertex="1" connectable="0">
          <mxGeometry x="-0.052" y="-1" relative="1" as="geometry">
            <mxPoint x="2" y="-1" as="offset" />
          </mxGeometry>
        </mxCell>
        <mxCell id="gnYcMqu5lkD7bBxtje_X-22" value="103" style="edgeLabel;html=1;align=center;verticalAlign=middle;resizable=0;points=[];" parent="gnYcMqu5lkD7bBxtje_X-20" vertex="1" connectable="0">
          <mxGeometry x="0.0273" y="2" relative="1" as="geometry">
            <mxPoint as="offset" />
          </mxGeometry>
        </mxCell>
        <mxCell id="gnYcMqu5lkD7bBxtje_X-23" value="&lt;font style=&quot;font-size: 14px;&quot;&gt;V1&lt;br&gt;n=8, tc=11 нс&lt;br&gt;&lt;/font&gt;" style="text;html=1;align=center;verticalAlign=middle;resizable=0;points=[];autosize=1;strokeColor=none;fillColor=none;" parent="1" vertex="1">
          <mxGeometry x="-45" y="350" width="110" height="50" as="geometry" />
        </mxCell>
        <mxCell id="gnYcMqu5lkD7bBxtje_X-24" value="ti" style="rounded=0;whiteSpace=wrap;html=1;" parent="1" vertex="1">
          <mxGeometry x="80" y="360" width="30" height="30" as="geometry" />
        </mxCell>
        <mxCell id="gnYcMqu5lkD7bBxtje_X-25" value="VDIV Aj, Bj, Cj" style="rounded=0;whiteSpace=wrap;html=1;" parent="1" vertex="1">
          <mxGeometry x="110" y="360" width="170" height="30" as="geometry" />
        </mxCell>
        <mxCell id="gnYcMqu5lkD7bBxtje_X-26" value="ti" style="rounded=0;whiteSpace=wrap;html=1;" parent="1" vertex="1">
          <mxGeometry x="280" y="360" width="30" height="30" as="geometry" />
        </mxCell>
        <mxCell id="gnYcMqu5lkD7bBxtje_X-27" value="VADD Cj, 5, Fj" style="rounded=0;whiteSpace=wrap;html=1;" parent="1" vertex="1">
          <mxGeometry x="310" y="360" width="170" height="30" as="geometry" />
        </mxCell>
        <mxCell id="gnYcMqu5lkD7bBxtje_X-28" value="" style="endArrow=none;html=1;rounded=0;" parent="1" edge="1">
          <mxGeometry width="50" height="50" relative="1" as="geometry">
            <mxPoint x="480" y="360" as="sourcePoint" />
            <mxPoint x="480" y="310" as="targetPoint" />
          </mxGeometry>
        </mxCell>
        <mxCell id="gnYcMqu5lkD7bBxtje_X-31" value="" style="endArrow=none;html=1;rounded=0;" parent="1" edge="1">
          <mxGeometry width="50" height="50" relative="1" as="geometry">
            <mxPoint x="110" y="360" as="sourcePoint" />
            <mxPoint x="110" y="330" as="targetPoint" />
          </mxGeometry>
        </mxCell>
        <mxCell id="gnYcMqu5lkD7bBxtje_X-32" value="" style="endArrow=none;html=1;rounded=0;" parent="1" edge="1">
          <mxGeometry width="50" height="50" relative="1" as="geometry">
            <mxPoint x="280" y="360" as="sourcePoint" />
            <mxPoint x="280" y="330" as="targetPoint" />
          </mxGeometry>
        </mxCell>
        <mxCell id="gnYcMqu5lkD7bBxtje_X-33" value="" style="endArrow=none;html=1;rounded=0;" parent="1" edge="1">
          <mxGeometry width="50" height="50" relative="1" as="geometry">
            <mxPoint x="310" y="360" as="sourcePoint" />
            <mxPoint x="310" y="330" as="targetPoint" />
          </mxGeometry>
        </mxCell>
        <mxCell id="gnYcMqu5lkD7bBxtje_X-34" value="" style="endArrow=classic;startArrow=classic;html=1;rounded=0;" parent="1" edge="1">
          <mxGeometry width="50" height="50" relative="1" as="geometry">
            <mxPoint x="80" y="320" as="sourcePoint" />
            <mxPoint x="480" y="320" as="targetPoint" />
          </mxGeometry>
        </mxCell>
        <mxCell id="gnYcMqu5lkD7bBxtje_X-36" value="1653" style="edgeLabel;html=1;align=center;verticalAlign=middle;resizable=0;points=[];" parent="gnYcMqu5lkD7bBxtje_X-34" vertex="1" connectable="0">
          <mxGeometry x="0.0273" y="2" relative="1" as="geometry">
            <mxPoint as="offset" />
          </mxGeometry>
        </mxCell>
        <mxCell id="gnYcMqu5lkD7bBxtje_X-37" value="" style="endArrow=classic;startArrow=classic;html=1;rounded=0;" parent="1" edge="1">
          <mxGeometry width="50" height="50" relative="1" as="geometry">
            <mxPoint x="81" y="350" as="sourcePoint" />
            <mxPoint x="109" y="350" as="targetPoint" />
          </mxGeometry>
        </mxCell>
        <mxCell id="gnYcMqu5lkD7bBxtje_X-38" value="12" style="edgeLabel;html=1;align=center;verticalAlign=middle;resizable=0;points=[];" parent="gnYcMqu5lkD7bBxtje_X-37" vertex="1" connectable="0">
          <mxGeometry x="-0.0124" relative="1" as="geometry">
            <mxPoint as="offset" />
          </mxGeometry>
        </mxCell>
        <mxCell id="gnYcMqu5lkD7bBxtje_X-39" value="" style="endArrow=classic;startArrow=classic;html=1;rounded=0;" parent="1" edge="1">
          <mxGeometry width="50" height="50" relative="1" as="geometry">
            <mxPoint x="111" y="350" as="sourcePoint" />
            <mxPoint x="280" y="350" as="targetPoint" />
          </mxGeometry>
        </mxCell>
        <mxCell id="gnYcMqu5lkD7bBxtje_X-40" value="816" style="edgeLabel;html=1;align=center;verticalAlign=middle;resizable=0;points=[];" parent="gnYcMqu5lkD7bBxtje_X-39" vertex="1" connectable="0">
          <mxGeometry x="-0.0124" relative="1" as="geometry">
            <mxPoint as="offset" />
          </mxGeometry>
        </mxCell>
        <mxCell id="gnYcMqu5lkD7bBxtje_X-41" value="" style="endArrow=classic;startArrow=classic;html=1;rounded=0;" parent="1" edge="1">
          <mxGeometry width="50" height="50" relative="1" as="geometry">
            <mxPoint x="280" y="350" as="sourcePoint" />
            <mxPoint x="308" y="350" as="targetPoint" />
          </mxGeometry>
        </mxCell>
        <mxCell id="gnYcMqu5lkD7bBxtje_X-42" value="9" style="edgeLabel;html=1;align=center;verticalAlign=middle;resizable=0;points=[];" parent="gnYcMqu5lkD7bBxtje_X-41" vertex="1" connectable="0">
          <mxGeometry x="-0.0124" relative="1" as="geometry">
            <mxPoint as="offset" />
          </mxGeometry>
        </mxCell>
        <mxCell id="gnYcMqu5lkD7bBxtje_X-43" value="" style="endArrow=classic;startArrow=classic;html=1;rounded=0;" parent="1" edge="1">
          <mxGeometry width="50" height="50" relative="1" as="geometry">
            <mxPoint x="310.5" y="350" as="sourcePoint" />
            <mxPoint x="479.5" y="350" as="targetPoint" />
          </mxGeometry>
        </mxCell>
        <mxCell id="gnYcMqu5lkD7bBxtje_X-44" value="816" style="edgeLabel;html=1;align=center;verticalAlign=middle;resizable=0;points=[];" parent="gnYcMqu5lkD7bBxtje_X-43" vertex="1" connectable="0">
          <mxGeometry x="-0.0124" relative="1" as="geometry">
            <mxPoint as="offset" />
          </mxGeometry>
        </mxCell>
        <mxCell id="gnYcMqu5lkD7bBxtje_X-46" value="ti" style="rounded=0;whiteSpace=wrap;html=1;" parent="1" vertex="1">
          <mxGeometry x="80" y="170" width="30" height="30" as="geometry" />
        </mxCell>
        <mxCell id="gnYcMqu5lkD7bBxtje_X-47" value="VSUB Di, 3, Ei" style="rounded=0;whiteSpace=wrap;html=1;" parent="1" vertex="1">
          <mxGeometry x="110" y="170" width="250" height="30" as="geometry" />
        </mxCell>
        <mxCell id="gnYcMqu5lkD7bBxtje_X-48" value="" style="endArrow=none;html=1;rounded=0;" parent="1" edge="1">
          <mxGeometry width="50" height="50" relative="1" as="geometry">
            <mxPoint x="110" y="170" as="sourcePoint" />
            <mxPoint x="110" y="140" as="targetPoint" />
          </mxGeometry>
        </mxCell>
        <mxCell id="gnYcMqu5lkD7bBxtje_X-49" value="" style="endArrow=none;html=1;rounded=0;" parent="1" edge="1">
          <mxGeometry width="50" height="50" relative="1" as="geometry">
            <mxPoint x="360" y="170" as="sourcePoint" />
            <mxPoint x="360" y="120" as="targetPoint" />
          </mxGeometry>
        </mxCell>
        <mxCell id="gnYcMqu5lkD7bBxtje_X-51" value="" style="endArrow=classic;startArrow=classic;html=1;rounded=0;" parent="1" edge="1">
          <mxGeometry width="50" height="50" relative="1" as="geometry">
            <mxPoint x="81" y="160" as="sourcePoint" />
            <mxPoint x="109" y="160" as="targetPoint" />
          </mxGeometry>
        </mxCell>
        <mxCell id="gnYcMqu5lkD7bBxtje_X-52" value="10" style="edgeLabel;html=1;align=center;verticalAlign=middle;resizable=0;points=[];" parent="gnYcMqu5lkD7bBxtje_X-51" vertex="1" connectable="0">
          <mxGeometry x="-0.0124" relative="1" as="geometry">
            <mxPoint as="offset" />
          </mxGeometry>
        </mxCell>
        <mxCell id="gnYcMqu5lkD7bBxtje_X-53" value="" style="endArrow=classic;startArrow=classic;html=1;rounded=0;" parent="1" edge="1">
          <mxGeometry width="50" height="50" relative="1" as="geometry">
            <mxPoint x="111" y="160" as="sourcePoint" />
            <mxPoint x="360" y="160" as="targetPoint" />
          </mxGeometry>
        </mxCell>
        <mxCell id="gnYcMqu5lkD7bBxtje_X-54" value="1197" style="edgeLabel;html=1;align=center;verticalAlign=middle;resizable=0;points=[];" parent="gnYcMqu5lkD7bBxtje_X-53" vertex="1" connectable="0">
          <mxGeometry x="-0.0124" relative="1" as="geometry">
            <mxPoint as="offset" />
          </mxGeometry>
        </mxCell>
        <mxCell id="gnYcMqu5lkD7bBxtje_X-55" value="" style="endArrow=classic;startArrow=classic;html=1;rounded=0;" parent="1" edge="1">
          <mxGeometry width="50" height="50" relative="1" as="geometry">
            <mxPoint x="80" y="130" as="sourcePoint" />
            <mxPoint x="359" y="130" as="targetPoint" />
          </mxGeometry>
        </mxCell>
        <mxCell id="gnYcMqu5lkD7bBxtje_X-56" value="1207" style="edgeLabel;html=1;align=center;verticalAlign=middle;resizable=0;points=[];" parent="gnYcMqu5lkD7bBxtje_X-55" vertex="1" connectable="0">
          <mxGeometry x="-0.0124" relative="1" as="geometry">
            <mxPoint as="offset" />
          </mxGeometry>
        </mxCell>
        <mxCell id="BizChabNb21-beB3vhZF-1" value="&lt;font style=&quot;font-size: 14px;&quot;&gt;V2&lt;br&gt;(n=7, tc=12 нс)&lt;/font&gt;" style="text;html=1;align=center;verticalAlign=middle;resizable=0;points=[];autosize=1;strokeColor=none;fillColor=none;" vertex="1" parent="1">
          <mxGeometry x="-50" y="160" width="120" height="50" as="geometry" />
        </mxCell>
        <mxCell id="BizChabNb21-beB3vhZF-2" value="" style="endArrow=classic;html=1;rounded=0;" edge="1" parent="1">
          <mxGeometry width="50" height="50" relative="1" as="geometry">
            <mxPoint x="85" y="1200" as="sourcePoint" />
            <mxPoint x="85" y="720" as="targetPoint" />
          </mxGeometry>
        </mxCell>
        <mxCell id="BizChabNb21-beB3vhZF-3" value="" style="endArrow=classic;html=1;rounded=0;" edge="1" parent="1">
          <mxGeometry width="50" height="50" relative="1" as="geometry">
            <mxPoint x="85" y="1200" as="sourcePoint" />
            <mxPoint x="605" y="1200" as="targetPoint" />
          </mxGeometry>
        </mxCell>
        <mxCell id="BizChabNb21-beB3vhZF-4" value="" style="endArrow=classic;html=1;rounded=0;" edge="1" parent="1">
          <mxGeometry width="50" height="50" relative="1" as="geometry">
            <mxPoint x="85" y="1030" as="sourcePoint" />
            <mxPoint x="605" y="1030" as="targetPoint" />
          </mxGeometry>
        </mxCell>
        <mxCell id="BizChabNb21-beB3vhZF-5" value="" style="endArrow=classic;html=1;rounded=0;" edge="1" parent="1">
          <mxGeometry width="50" height="50" relative="1" as="geometry">
            <mxPoint x="85" y="840" as="sourcePoint" />
            <mxPoint x="605" y="840" as="targetPoint" />
          </mxGeometry>
        </mxCell>
        <mxCell id="BizChabNb21-beB3vhZF-6" value="&lt;font style=&quot;font-size: 14px;&quot;&gt;SC&lt;/font&gt;" style="text;html=1;align=center;verticalAlign=middle;resizable=0;points=[];autosize=1;strokeColor=none;fillColor=none;" vertex="1" parent="1">
          <mxGeometry x="35" y="1180" width="40" height="30" as="geometry" />
        </mxCell>
        <mxCell id="BizChabNb21-beB3vhZF-7" value="&lt;font style=&quot;font-size: 14px;&quot;&gt;t, 10&lt;sup&gt;-9&lt;/sup&gt;&lt;/font&gt;" style="text;html=1;align=center;verticalAlign=middle;resizable=0;points=[];autosize=1;strokeColor=none;fillColor=none;" vertex="1" parent="1">
          <mxGeometry x="605" y="820" width="60" height="30" as="geometry" />
        </mxCell>
        <mxCell id="BizChabNb21-beB3vhZF-8" value="&lt;font style=&quot;font-size: 14px;&quot;&gt;t, 10&lt;sup&gt;-9&lt;/sup&gt;&lt;/font&gt;" style="text;html=1;align=center;verticalAlign=middle;resizable=0;points=[];autosize=1;strokeColor=none;fillColor=none;" vertex="1" parent="1">
          <mxGeometry x="605" y="1010" width="60" height="30" as="geometry" />
        </mxCell>
        <mxCell id="BizChabNb21-beB3vhZF-9" value="&lt;font style=&quot;font-size: 14px;&quot;&gt;t, 10&lt;sup&gt;-9&lt;/sup&gt;&lt;/font&gt;" style="text;html=1;align=center;verticalAlign=middle;resizable=0;points=[];autosize=1;strokeColor=none;fillColor=none;" vertex="1" parent="1">
          <mxGeometry x="605" y="1180" width="60" height="30" as="geometry" />
        </mxCell>
        <mxCell id="BizChabNb21-beB3vhZF-10" value="DIV" style="rounded=0;whiteSpace=wrap;html=1;" vertex="1" parent="1">
          <mxGeometry x="85" y="1170" width="64" height="30" as="geometry" />
        </mxCell>
        <mxCell id="BizChabNb21-beB3vhZF-11" value="ADD" style="rounded=0;whiteSpace=wrap;html=1;" vertex="1" parent="1">
          <mxGeometry x="149" y="1170" width="60" height="30" as="geometry" />
        </mxCell>
        <mxCell id="BizChabNb21-beB3vhZF-12" value="" style="endArrow=none;html=1;rounded=0;" edge="1" parent="1">
          <mxGeometry width="50" height="50" relative="1" as="geometry">
            <mxPoint x="148.71" y="1170" as="sourcePoint" />
            <mxPoint x="148.71" y="1140" as="targetPoint" />
          </mxGeometry>
        </mxCell>
        <mxCell id="BizChabNb21-beB3vhZF-13" value="" style="endArrow=classic;startArrow=classic;html=1;rounded=0;" edge="1" parent="1">
          <mxGeometry width="50" height="50" relative="1" as="geometry">
            <mxPoint x="85" y="1160" as="sourcePoint" />
            <mxPoint x="149" y="1160" as="targetPoint" />
          </mxGeometry>
        </mxCell>
        <mxCell id="BizChabNb21-beB3vhZF-14" value="54" style="edgeLabel;html=1;align=center;verticalAlign=middle;resizable=0;points=[];" vertex="1" connectable="0" parent="BizChabNb21-beB3vhZF-13">
          <mxGeometry x="-0.052" y="-1" relative="1" as="geometry">
            <mxPoint x="2" y="-1" as="offset" />
          </mxGeometry>
        </mxCell>
        <mxCell id="BizChabNb21-beB3vhZF-15" value="" style="endArrow=none;html=1;rounded=0;" edge="1" parent="1">
          <mxGeometry width="50" height="50" relative="1" as="geometry">
            <mxPoint x="209" y="1170" as="sourcePoint" />
            <mxPoint x="209" y="1120" as="targetPoint" />
          </mxGeometry>
        </mxCell>
        <mxCell id="BizChabNb21-beB3vhZF-16" value="" style="endArrow=classic;startArrow=classic;html=1;rounded=0;" edge="1" parent="1">
          <mxGeometry width="50" height="50" relative="1" as="geometry">
            <mxPoint x="149" y="1160" as="sourcePoint" />
            <mxPoint x="205" y="1160" as="targetPoint" />
          </mxGeometry>
        </mxCell>
        <mxCell id="BizChabNb21-beB3vhZF-17" value="49" style="edgeLabel;html=1;align=center;verticalAlign=middle;resizable=0;points=[];" vertex="1" connectable="0" parent="BizChabNb21-beB3vhZF-16">
          <mxGeometry x="0.0014" y="1" relative="1" as="geometry">
            <mxPoint as="offset" />
          </mxGeometry>
        </mxCell>
        <mxCell id="BizChabNb21-beB3vhZF-18" value="" style="endArrow=classic;startArrow=classic;html=1;rounded=0;" edge="1" parent="1">
          <mxGeometry width="50" height="50" relative="1" as="geometry">
            <mxPoint x="85" y="1130" as="sourcePoint" />
            <mxPoint x="209" y="1130" as="targetPoint" />
          </mxGeometry>
        </mxCell>
        <mxCell id="BizChabNb21-beB3vhZF-19" value="54" style="edgeLabel;html=1;align=center;verticalAlign=middle;resizable=0;points=[];" vertex="1" connectable="0" parent="BizChabNb21-beB3vhZF-18">
          <mxGeometry x="-0.052" y="-1" relative="1" as="geometry">
            <mxPoint x="2" y="-1" as="offset" />
          </mxGeometry>
        </mxCell>
        <mxCell id="BizChabNb21-beB3vhZF-20" value="103" style="edgeLabel;html=1;align=center;verticalAlign=middle;resizable=0;points=[];" vertex="1" connectable="0" parent="BizChabNb21-beB3vhZF-18">
          <mxGeometry x="0.0273" y="2" relative="1" as="geometry">
            <mxPoint as="offset" />
          </mxGeometry>
        </mxCell>
        <mxCell id="BizChabNb21-beB3vhZF-21" value="&lt;font style=&quot;font-size: 14px;&quot;&gt;V2&lt;br&gt;n=8, tc=11 нс&lt;br&gt;&lt;/font&gt;" style="text;html=1;align=center;verticalAlign=middle;resizable=0;points=[];autosize=1;strokeColor=none;fillColor=none;" vertex="1" parent="1">
          <mxGeometry x="-40" y="990" width="110" height="50" as="geometry" />
        </mxCell>
        <mxCell id="BizChabNb21-beB3vhZF-22" value="ti" style="rounded=0;whiteSpace=wrap;html=1;" vertex="1" parent="1">
          <mxGeometry x="85" y="1000" width="30" height="30" as="geometry" />
        </mxCell>
        <mxCell id="BizChabNb21-beB3vhZF-23" value="VDIV Aj, Bj, Cj" style="rounded=0;whiteSpace=wrap;html=1;" vertex="1" parent="1">
          <mxGeometry x="115" y="1000" width="170" height="30" as="geometry" />
        </mxCell>
        <mxCell id="BizChabNb21-beB3vhZF-24" value="ti" style="rounded=0;whiteSpace=wrap;html=1;" vertex="1" parent="1">
          <mxGeometry x="285" y="1000" width="30" height="30" as="geometry" />
        </mxCell>
        <mxCell id="BizChabNb21-beB3vhZF-25" value="VADD Cj, 5, Fj" style="rounded=0;whiteSpace=wrap;html=1;" vertex="1" parent="1">
          <mxGeometry x="315" y="1000" width="170" height="30" as="geometry" />
        </mxCell>
        <mxCell id="BizChabNb21-beB3vhZF-26" value="" style="endArrow=none;html=1;rounded=0;" edge="1" parent="1">
          <mxGeometry width="50" height="50" relative="1" as="geometry">
            <mxPoint x="485" y="1000" as="sourcePoint" />
            <mxPoint x="485" y="950" as="targetPoint" />
          </mxGeometry>
        </mxCell>
        <mxCell id="BizChabNb21-beB3vhZF-27" value="" style="endArrow=none;html=1;rounded=0;" edge="1" parent="1">
          <mxGeometry width="50" height="50" relative="1" as="geometry">
            <mxPoint x="115" y="1000" as="sourcePoint" />
            <mxPoint x="115" y="970" as="targetPoint" />
          </mxGeometry>
        </mxCell>
        <mxCell id="BizChabNb21-beB3vhZF-28" value="" style="endArrow=none;html=1;rounded=0;" edge="1" parent="1">
          <mxGeometry width="50" height="50" relative="1" as="geometry">
            <mxPoint x="285" y="1000" as="sourcePoint" />
            <mxPoint x="285" y="970" as="targetPoint" />
          </mxGeometry>
        </mxCell>
        <mxCell id="BizChabNb21-beB3vhZF-29" value="" style="endArrow=none;html=1;rounded=0;" edge="1" parent="1">
          <mxGeometry width="50" height="50" relative="1" as="geometry">
            <mxPoint x="315" y="1000" as="sourcePoint" />
            <mxPoint x="315" y="970" as="targetPoint" />
          </mxGeometry>
        </mxCell>
        <mxCell id="BizChabNb21-beB3vhZF-30" value="" style="endArrow=classic;startArrow=classic;html=1;rounded=0;" edge="1" parent="1">
          <mxGeometry width="50" height="50" relative="1" as="geometry">
            <mxPoint x="85" y="960" as="sourcePoint" />
            <mxPoint x="485" y="960" as="targetPoint" />
          </mxGeometry>
        </mxCell>
        <mxCell id="BizChabNb21-beB3vhZF-31" value="2287" style="edgeLabel;html=1;align=center;verticalAlign=middle;resizable=0;points=[];" vertex="1" connectable="0" parent="BizChabNb21-beB3vhZF-30">
          <mxGeometry x="0.0273" y="2" relative="1" as="geometry">
            <mxPoint as="offset" />
          </mxGeometry>
        </mxCell>
        <mxCell id="BizChabNb21-beB3vhZF-32" value="" style="endArrow=classic;startArrow=classic;html=1;rounded=0;" edge="1" parent="1">
          <mxGeometry width="50" height="50" relative="1" as="geometry">
            <mxPoint x="86" y="990" as="sourcePoint" />
            <mxPoint x="114" y="990" as="targetPoint" />
          </mxGeometry>
        </mxCell>
        <mxCell id="BizChabNb21-beB3vhZF-33" value="12" style="edgeLabel;html=1;align=center;verticalAlign=middle;resizable=0;points=[];" vertex="1" connectable="0" parent="BizChabNb21-beB3vhZF-32">
          <mxGeometry x="-0.0124" relative="1" as="geometry">
            <mxPoint as="offset" />
          </mxGeometry>
        </mxCell>
        <mxCell id="BizChabNb21-beB3vhZF-34" value="" style="endArrow=classic;startArrow=classic;html=1;rounded=0;" edge="1" parent="1">
          <mxGeometry width="50" height="50" relative="1" as="geometry">
            <mxPoint x="116" y="990" as="sourcePoint" />
            <mxPoint x="285" y="990" as="targetPoint" />
          </mxGeometry>
        </mxCell>
        <mxCell id="BizChabNb21-beB3vhZF-35" value="1133" style="edgeLabel;html=1;align=center;verticalAlign=middle;resizable=0;points=[];" vertex="1" connectable="0" parent="BizChabNb21-beB3vhZF-34">
          <mxGeometry x="-0.0124" relative="1" as="geometry">
            <mxPoint as="offset" />
          </mxGeometry>
        </mxCell>
        <mxCell id="BizChabNb21-beB3vhZF-36" value="" style="endArrow=classic;startArrow=classic;html=1;rounded=0;" edge="1" parent="1">
          <mxGeometry width="50" height="50" relative="1" as="geometry">
            <mxPoint x="285" y="990" as="sourcePoint" />
            <mxPoint x="313" y="990" as="targetPoint" />
          </mxGeometry>
        </mxCell>
        <mxCell id="BizChabNb21-beB3vhZF-37" value="9" style="edgeLabel;html=1;align=center;verticalAlign=middle;resizable=0;points=[];" vertex="1" connectable="0" parent="BizChabNb21-beB3vhZF-36">
          <mxGeometry x="-0.0124" relative="1" as="geometry">
            <mxPoint as="offset" />
          </mxGeometry>
        </mxCell>
        <mxCell id="BizChabNb21-beB3vhZF-38" value="" style="endArrow=classic;startArrow=classic;html=1;rounded=0;" edge="1" parent="1">
          <mxGeometry width="50" height="50" relative="1" as="geometry">
            <mxPoint x="315.5" y="990" as="sourcePoint" />
            <mxPoint x="484.5" y="990" as="targetPoint" />
          </mxGeometry>
        </mxCell>
        <mxCell id="BizChabNb21-beB3vhZF-39" value="1133" style="edgeLabel;html=1;align=center;verticalAlign=middle;resizable=0;points=[];" vertex="1" connectable="0" parent="BizChabNb21-beB3vhZF-38">
          <mxGeometry x="-0.0124" relative="1" as="geometry">
            <mxPoint as="offset" />
          </mxGeometry>
        </mxCell>
        <mxCell id="BizChabNb21-beB3vhZF-40" value="ti" style="rounded=0;whiteSpace=wrap;html=1;" vertex="1" parent="1">
          <mxGeometry x="85" y="810" width="30" height="30" as="geometry" />
        </mxCell>
        <mxCell id="BizChabNb21-beB3vhZF-41" value="VSUB Di, 3, Ei" style="rounded=0;whiteSpace=wrap;html=1;" vertex="1" parent="1">
          <mxGeometry x="115" y="810" width="115" height="30" as="geometry" />
        </mxCell>
        <mxCell id="BizChabNb21-beB3vhZF-42" value="" style="endArrow=none;html=1;rounded=0;" edge="1" parent="1">
          <mxGeometry width="50" height="50" relative="1" as="geometry">
            <mxPoint x="115" y="810" as="sourcePoint" />
            <mxPoint x="115" y="780" as="targetPoint" />
          </mxGeometry>
        </mxCell>
        <mxCell id="BizChabNb21-beB3vhZF-43" value="" style="endArrow=none;html=1;rounded=0;" edge="1" parent="1">
          <mxGeometry width="50" height="50" relative="1" as="geometry">
            <mxPoint x="230" y="810" as="sourcePoint" />
            <mxPoint x="230" y="760" as="targetPoint" />
          </mxGeometry>
        </mxCell>
        <mxCell id="BizChabNb21-beB3vhZF-44" value="" style="endArrow=classic;startArrow=classic;html=1;rounded=0;" edge="1" parent="1">
          <mxGeometry width="50" height="50" relative="1" as="geometry">
            <mxPoint x="86" y="800" as="sourcePoint" />
            <mxPoint x="114" y="800" as="targetPoint" />
          </mxGeometry>
        </mxCell>
        <mxCell id="BizChabNb21-beB3vhZF-45" value="10" style="edgeLabel;html=1;align=center;verticalAlign=middle;resizable=0;points=[];" vertex="1" connectable="0" parent="BizChabNb21-beB3vhZF-44">
          <mxGeometry x="-0.0124" relative="1" as="geometry">
            <mxPoint as="offset" />
          </mxGeometry>
        </mxCell>
        <mxCell id="BizChabNb21-beB3vhZF-46" value="" style="endArrow=classic;startArrow=classic;html=1;rounded=0;" edge="1" parent="1">
          <mxGeometry width="50" height="50" relative="1" as="geometry">
            <mxPoint x="116" y="800" as="sourcePoint" />
            <mxPoint x="230" y="800" as="targetPoint" />
          </mxGeometry>
        </mxCell>
        <mxCell id="BizChabNb21-beB3vhZF-47" value="840" style="edgeLabel;html=1;align=center;verticalAlign=middle;resizable=0;points=[];" vertex="1" connectable="0" parent="BizChabNb21-beB3vhZF-46">
          <mxGeometry x="-0.0124" relative="1" as="geometry">
            <mxPoint as="offset" />
          </mxGeometry>
        </mxCell>
        <mxCell id="BizChabNb21-beB3vhZF-48" value="" style="endArrow=classic;startArrow=classic;html=1;rounded=0;" edge="1" parent="1">
          <mxGeometry width="50" height="50" relative="1" as="geometry">
            <mxPoint x="85" y="770" as="sourcePoint" />
            <mxPoint x="230" y="770" as="targetPoint" />
          </mxGeometry>
        </mxCell>
        <mxCell id="BizChabNb21-beB3vhZF-49" value="850" style="edgeLabel;html=1;align=center;verticalAlign=middle;resizable=0;points=[];" vertex="1" connectable="0" parent="BizChabNb21-beB3vhZF-48">
          <mxGeometry x="-0.0124" relative="1" as="geometry">
            <mxPoint as="offset" />
          </mxGeometry>
        </mxCell>
        <mxCell id="BizChabNb21-beB3vhZF-50" value="&lt;font style=&quot;font-size: 14px;&quot;&gt;V1&lt;br&gt;(n=7, tc=12 нс)&lt;/font&gt;" style="text;html=1;align=center;verticalAlign=middle;resizable=0;points=[];autosize=1;strokeColor=none;fillColor=none;" vertex="1" parent="1">
          <mxGeometry x="-45" y="800" width="120" height="50" as="geometry" />
        </mxCell>
        <mxCell id="BizChabNb21-beB3vhZF-52" value="" style="endArrow=classic;html=1;rounded=0;" edge="1" parent="1">
          <mxGeometry width="50" height="50" relative="1" as="geometry">
            <mxPoint x="110" y="1810" as="sourcePoint" />
            <mxPoint x="110" y="1330" as="targetPoint" />
          </mxGeometry>
        </mxCell>
        <mxCell id="BizChabNb21-beB3vhZF-53" value="" style="endArrow=classic;html=1;rounded=0;" edge="1" parent="1">
          <mxGeometry width="50" height="50" relative="1" as="geometry">
            <mxPoint x="110" y="1810" as="sourcePoint" />
            <mxPoint x="630" y="1810" as="targetPoint" />
          </mxGeometry>
        </mxCell>
        <mxCell id="BizChabNb21-beB3vhZF-54" value="" style="endArrow=classic;html=1;rounded=0;" edge="1" parent="1">
          <mxGeometry width="50" height="50" relative="1" as="geometry">
            <mxPoint x="110" y="1640" as="sourcePoint" />
            <mxPoint x="630" y="1640" as="targetPoint" />
          </mxGeometry>
        </mxCell>
        <mxCell id="BizChabNb21-beB3vhZF-55" value="" style="endArrow=classic;html=1;rounded=0;" edge="1" parent="1">
          <mxGeometry width="50" height="50" relative="1" as="geometry">
            <mxPoint x="110" y="1450" as="sourcePoint" />
            <mxPoint x="630" y="1450" as="targetPoint" />
          </mxGeometry>
        </mxCell>
        <mxCell id="BizChabNb21-beB3vhZF-56" value="&lt;font style=&quot;font-size: 14px;&quot;&gt;SC&lt;/font&gt;" style="text;html=1;align=center;verticalAlign=middle;resizable=0;points=[];autosize=1;strokeColor=none;fillColor=none;" vertex="1" parent="1">
          <mxGeometry x="60" y="1790" width="40" height="30" as="geometry" />
        </mxCell>
        <mxCell id="BizChabNb21-beB3vhZF-57" value="&lt;font style=&quot;font-size: 14px;&quot;&gt;t, 10&lt;sup&gt;-9&lt;/sup&gt;&lt;/font&gt;" style="text;html=1;align=center;verticalAlign=middle;resizable=0;points=[];autosize=1;strokeColor=none;fillColor=none;" vertex="1" parent="1">
          <mxGeometry x="630" y="1430" width="60" height="30" as="geometry" />
        </mxCell>
        <mxCell id="BizChabNb21-beB3vhZF-58" value="&lt;font style=&quot;font-size: 14px;&quot;&gt;t, 10&lt;sup&gt;-9&lt;/sup&gt;&lt;/font&gt;" style="text;html=1;align=center;verticalAlign=middle;resizable=0;points=[];autosize=1;strokeColor=none;fillColor=none;" vertex="1" parent="1">
          <mxGeometry x="630" y="1620" width="60" height="30" as="geometry" />
        </mxCell>
        <mxCell id="BizChabNb21-beB3vhZF-59" value="&lt;font style=&quot;font-size: 14px;&quot;&gt;t, 10&lt;sup&gt;-9&lt;/sup&gt;&lt;/font&gt;" style="text;html=1;align=center;verticalAlign=middle;resizable=0;points=[];autosize=1;strokeColor=none;fillColor=none;" vertex="1" parent="1">
          <mxGeometry x="630" y="1790" width="60" height="30" as="geometry" />
        </mxCell>
        <mxCell id="BizChabNb21-beB3vhZF-60" value="DIV" style="rounded=0;whiteSpace=wrap;html=1;" vertex="1" parent="1">
          <mxGeometry x="110" y="1780" width="64" height="30" as="geometry" />
        </mxCell>
        <mxCell id="BizChabNb21-beB3vhZF-61" value="ADD" style="rounded=0;whiteSpace=wrap;html=1;" vertex="1" parent="1">
          <mxGeometry x="174" y="1780" width="60" height="30" as="geometry" />
        </mxCell>
        <mxCell id="BizChabNb21-beB3vhZF-62" value="" style="endArrow=none;html=1;rounded=0;" edge="1" parent="1">
          <mxGeometry width="50" height="50" relative="1" as="geometry">
            <mxPoint x="173.71" y="1780" as="sourcePoint" />
            <mxPoint x="173.71" y="1750" as="targetPoint" />
          </mxGeometry>
        </mxCell>
        <mxCell id="BizChabNb21-beB3vhZF-63" value="" style="endArrow=classic;startArrow=classic;html=1;rounded=0;" edge="1" parent="1">
          <mxGeometry width="50" height="50" relative="1" as="geometry">
            <mxPoint x="110" y="1770" as="sourcePoint" />
            <mxPoint x="174" y="1770" as="targetPoint" />
          </mxGeometry>
        </mxCell>
        <mxCell id="BizChabNb21-beB3vhZF-64" value="54" style="edgeLabel;html=1;align=center;verticalAlign=middle;resizable=0;points=[];" vertex="1" connectable="0" parent="BizChabNb21-beB3vhZF-63">
          <mxGeometry x="-0.052" y="-1" relative="1" as="geometry">
            <mxPoint x="2" y="-1" as="offset" />
          </mxGeometry>
        </mxCell>
        <mxCell id="BizChabNb21-beB3vhZF-65" value="" style="endArrow=none;html=1;rounded=0;" edge="1" parent="1">
          <mxGeometry width="50" height="50" relative="1" as="geometry">
            <mxPoint x="234" y="1780" as="sourcePoint" />
            <mxPoint x="234" y="1730" as="targetPoint" />
          </mxGeometry>
        </mxCell>
        <mxCell id="BizChabNb21-beB3vhZF-66" value="" style="endArrow=classic;startArrow=classic;html=1;rounded=0;" edge="1" parent="1">
          <mxGeometry width="50" height="50" relative="1" as="geometry">
            <mxPoint x="174" y="1770" as="sourcePoint" />
            <mxPoint x="230" y="1770" as="targetPoint" />
          </mxGeometry>
        </mxCell>
        <mxCell id="BizChabNb21-beB3vhZF-67" value="49" style="edgeLabel;html=1;align=center;verticalAlign=middle;resizable=0;points=[];" vertex="1" connectable="0" parent="BizChabNb21-beB3vhZF-66">
          <mxGeometry x="0.0014" y="1" relative="1" as="geometry">
            <mxPoint as="offset" />
          </mxGeometry>
        </mxCell>
        <mxCell id="BizChabNb21-beB3vhZF-68" value="" style="endArrow=classic;startArrow=classic;html=1;rounded=0;" edge="1" parent="1">
          <mxGeometry width="50" height="50" relative="1" as="geometry">
            <mxPoint x="110" y="1740" as="sourcePoint" />
            <mxPoint x="234" y="1740" as="targetPoint" />
          </mxGeometry>
        </mxCell>
        <mxCell id="BizChabNb21-beB3vhZF-69" value="54" style="edgeLabel;html=1;align=center;verticalAlign=middle;resizable=0;points=[];" vertex="1" connectable="0" parent="BizChabNb21-beB3vhZF-68">
          <mxGeometry x="-0.052" y="-1" relative="1" as="geometry">
            <mxPoint x="2" y="-1" as="offset" />
          </mxGeometry>
        </mxCell>
        <mxCell id="BizChabNb21-beB3vhZF-70" value="103" style="edgeLabel;html=1;align=center;verticalAlign=middle;resizable=0;points=[];" vertex="1" connectable="0" parent="BizChabNb21-beB3vhZF-68">
          <mxGeometry x="0.0273" y="2" relative="1" as="geometry">
            <mxPoint as="offset" />
          </mxGeometry>
        </mxCell>
        <mxCell id="BizChabNb21-beB3vhZF-71" value="&lt;font style=&quot;font-size: 14px;&quot;&gt;V2&lt;br&gt;n=8, tc=12 нс&lt;br&gt;&lt;/font&gt;" style="text;html=1;align=center;verticalAlign=middle;resizable=0;points=[];autosize=1;strokeColor=none;fillColor=none;" vertex="1" parent="1">
          <mxGeometry x="-15" y="1600" width="110" height="50" as="geometry" />
        </mxCell>
        <mxCell id="BizChabNb21-beB3vhZF-72" value="ti" style="rounded=0;whiteSpace=wrap;html=1;" vertex="1" parent="1">
          <mxGeometry x="110" y="1610" width="30" height="30" as="geometry" />
        </mxCell>
        <mxCell id="BizChabNb21-beB3vhZF-73" value="VDIV Aj, Bj, Cj" style="rounded=0;whiteSpace=wrap;html=1;" vertex="1" parent="1">
          <mxGeometry x="140" y="1610" width="170" height="30" as="geometry" />
        </mxCell>
        <mxCell id="BizChabNb21-beB3vhZF-74" value="ti" style="rounded=0;whiteSpace=wrap;html=1;" vertex="1" parent="1">
          <mxGeometry x="254.99999999999997" y="1420" width="30" height="30" as="geometry" />
        </mxCell>
        <mxCell id="BizChabNb21-beB3vhZF-75" value="VADD Cj, 5, Fj" style="rounded=0;whiteSpace=wrap;html=1;" vertex="1" parent="1">
          <mxGeometry x="285" y="1420" width="170" height="30" as="geometry" />
        </mxCell>
        <mxCell id="BizChabNb21-beB3vhZF-76" value="" style="endArrow=none;html=1;rounded=0;" edge="1" parent="1">
          <mxGeometry width="50" height="50" relative="1" as="geometry">
            <mxPoint x="455" y="1420" as="sourcePoint" />
            <mxPoint x="455" y="1370" as="targetPoint" />
          </mxGeometry>
        </mxCell>
        <mxCell id="BizChabNb21-beB3vhZF-77" value="" style="endArrow=none;html=1;rounded=0;" edge="1" parent="1">
          <mxGeometry width="50" height="50" relative="1" as="geometry">
            <mxPoint x="140" y="1610" as="sourcePoint" />
            <mxPoint x="140" y="1580" as="targetPoint" />
          </mxGeometry>
        </mxCell>
        <mxCell id="BizChabNb21-beB3vhZF-78" value="" style="endArrow=none;html=1;rounded=0;" edge="1" parent="1">
          <mxGeometry width="50" height="50" relative="1" as="geometry">
            <mxPoint x="310" y="1610" as="sourcePoint" />
            <mxPoint x="310" y="1560" as="targetPoint" />
          </mxGeometry>
        </mxCell>
        <mxCell id="BizChabNb21-beB3vhZF-79" value="" style="endArrow=none;html=1;rounded=0;" edge="1" parent="1">
          <mxGeometry width="50" height="50" relative="1" as="geometry">
            <mxPoint x="285" y="1420" as="sourcePoint" />
            <mxPoint x="285" y="1390" as="targetPoint" />
          </mxGeometry>
        </mxCell>
        <mxCell id="BizChabNb21-beB3vhZF-80" value="" style="endArrow=classic;startArrow=classic;html=1;rounded=0;" edge="1" parent="1">
          <mxGeometry width="50" height="50" relative="1" as="geometry">
            <mxPoint x="110" y="1570" as="sourcePoint" />
            <mxPoint x="310" y="1570" as="targetPoint" />
          </mxGeometry>
        </mxCell>
        <mxCell id="BizChabNb21-beB3vhZF-103" value="1278" style="edgeLabel;html=1;align=center;verticalAlign=middle;resizable=0;points=[];" vertex="1" connectable="0" parent="BizChabNb21-beB3vhZF-80">
          <mxGeometry x="-0.1437" relative="1" as="geometry">
            <mxPoint x="13" as="offset" />
          </mxGeometry>
        </mxCell>
        <mxCell id="BizChabNb21-beB3vhZF-82" value="" style="endArrow=classic;startArrow=classic;html=1;rounded=0;" edge="1" parent="1">
          <mxGeometry width="50" height="50" relative="1" as="geometry">
            <mxPoint x="111" y="1600" as="sourcePoint" />
            <mxPoint x="139" y="1600" as="targetPoint" />
          </mxGeometry>
        </mxCell>
        <mxCell id="BizChabNb21-beB3vhZF-83" value="12" style="edgeLabel;html=1;align=center;verticalAlign=middle;resizable=0;points=[];" vertex="1" connectable="0" parent="BizChabNb21-beB3vhZF-82">
          <mxGeometry x="-0.0124" relative="1" as="geometry">
            <mxPoint as="offset" />
          </mxGeometry>
        </mxCell>
        <mxCell id="BizChabNb21-beB3vhZF-84" value="" style="endArrow=classic;startArrow=classic;html=1;rounded=0;" edge="1" parent="1">
          <mxGeometry width="50" height="50" relative="1" as="geometry">
            <mxPoint x="141" y="1600" as="sourcePoint" />
            <mxPoint x="310" y="1600" as="targetPoint" />
          </mxGeometry>
        </mxCell>
        <mxCell id="BizChabNb21-beB3vhZF-85" value="1266" style="edgeLabel;html=1;align=center;verticalAlign=middle;resizable=0;points=[];" vertex="1" connectable="0" parent="BizChabNb21-beB3vhZF-84">
          <mxGeometry x="-0.0124" relative="1" as="geometry">
            <mxPoint as="offset" />
          </mxGeometry>
        </mxCell>
        <mxCell id="BizChabNb21-beB3vhZF-86" value="" style="endArrow=classic;startArrow=classic;html=1;rounded=0;" edge="1" parent="1">
          <mxGeometry width="50" height="50" relative="1" as="geometry">
            <mxPoint x="254.99999999999997" y="1410" as="sourcePoint" />
            <mxPoint x="283" y="1410" as="targetPoint" />
          </mxGeometry>
        </mxCell>
        <mxCell id="BizChabNb21-beB3vhZF-87" value="9" style="edgeLabel;html=1;align=center;verticalAlign=middle;resizable=0;points=[];" vertex="1" connectable="0" parent="BizChabNb21-beB3vhZF-86">
          <mxGeometry x="-0.0124" relative="1" as="geometry">
            <mxPoint as="offset" />
          </mxGeometry>
        </mxCell>
        <mxCell id="BizChabNb21-beB3vhZF-88" value="" style="endArrow=classic;startArrow=classic;html=1;rounded=0;" edge="1" parent="1">
          <mxGeometry width="50" height="50" relative="1" as="geometry">
            <mxPoint x="285.5" y="1410" as="sourcePoint" />
            <mxPoint x="454.5" y="1410" as="targetPoint" />
          </mxGeometry>
        </mxCell>
        <mxCell id="BizChabNb21-beB3vhZF-89" value="1224" style="edgeLabel;html=1;align=center;verticalAlign=middle;resizable=0;points=[];" vertex="1" connectable="0" parent="BizChabNb21-beB3vhZF-88">
          <mxGeometry x="-0.0124" relative="1" as="geometry">
            <mxPoint as="offset" />
          </mxGeometry>
        </mxCell>
        <mxCell id="BizChabNb21-beB3vhZF-90" value="ti" style="rounded=0;whiteSpace=wrap;html=1;" vertex="1" parent="1">
          <mxGeometry x="110" y="1420" width="30" height="30" as="geometry" />
        </mxCell>
        <mxCell id="BizChabNb21-beB3vhZF-91" value="VSUB Di, 3, Ei" style="rounded=0;whiteSpace=wrap;html=1;" vertex="1" parent="1">
          <mxGeometry x="140" y="1420" width="115" height="30" as="geometry" />
        </mxCell>
        <mxCell id="BizChabNb21-beB3vhZF-92" value="" style="endArrow=none;html=1;rounded=0;" edge="1" parent="1">
          <mxGeometry width="50" height="50" relative="1" as="geometry">
            <mxPoint x="140" y="1420" as="sourcePoint" />
            <mxPoint x="140" y="1390" as="targetPoint" />
          </mxGeometry>
        </mxCell>
        <mxCell id="BizChabNb21-beB3vhZF-93" value="" style="endArrow=none;html=1;rounded=0;" edge="1" parent="1">
          <mxGeometry width="50" height="50" relative="1" as="geometry">
            <mxPoint x="255" y="1420" as="sourcePoint" />
            <mxPoint x="255" y="1390" as="targetPoint" />
          </mxGeometry>
        </mxCell>
        <mxCell id="BizChabNb21-beB3vhZF-94" value="" style="endArrow=classic;startArrow=classic;html=1;rounded=0;" edge="1" parent="1">
          <mxGeometry width="50" height="50" relative="1" as="geometry">
            <mxPoint x="111" y="1410" as="sourcePoint" />
            <mxPoint x="139" y="1410" as="targetPoint" />
          </mxGeometry>
        </mxCell>
        <mxCell id="BizChabNb21-beB3vhZF-95" value="10" style="edgeLabel;html=1;align=center;verticalAlign=middle;resizable=0;points=[];" vertex="1" connectable="0" parent="BizChabNb21-beB3vhZF-94">
          <mxGeometry x="-0.0124" relative="1" as="geometry">
            <mxPoint as="offset" />
          </mxGeometry>
        </mxCell>
        <mxCell id="BizChabNb21-beB3vhZF-96" value="" style="endArrow=classic;startArrow=classic;html=1;rounded=0;" edge="1" parent="1">
          <mxGeometry width="50" height="50" relative="1" as="geometry">
            <mxPoint x="141" y="1410" as="sourcePoint" />
            <mxPoint x="255" y="1410" as="targetPoint" />
          </mxGeometry>
        </mxCell>
        <mxCell id="BizChabNb21-beB3vhZF-97" value="840" style="edgeLabel;html=1;align=center;verticalAlign=middle;resizable=0;points=[];" vertex="1" connectable="0" parent="BizChabNb21-beB3vhZF-96">
          <mxGeometry x="-0.0124" relative="1" as="geometry">
            <mxPoint as="offset" />
          </mxGeometry>
        </mxCell>
        <mxCell id="BizChabNb21-beB3vhZF-100" value="&lt;font style=&quot;font-size: 14px;&quot;&gt;V1&lt;br&gt;(n=7, tc=12 нс)&lt;/font&gt;" style="text;html=1;align=center;verticalAlign=middle;resizable=0;points=[];autosize=1;strokeColor=none;fillColor=none;" vertex="1" parent="1">
          <mxGeometry x="-20" y="1410" width="120" height="50" as="geometry" />
        </mxCell>
        <mxCell id="BizChabNb21-beB3vhZF-101" value="" style="endArrow=classic;startArrow=classic;html=1;rounded=0;" edge="1" parent="1">
          <mxGeometry width="50" height="50" relative="1" as="geometry">
            <mxPoint x="110" y="1380" as="sourcePoint" />
            <mxPoint x="450" y="1380" as="targetPoint" />
          </mxGeometry>
        </mxCell>
        <mxCell id="BizChabNb21-beB3vhZF-102" value="2083" style="edgeLabel;html=1;align=center;verticalAlign=middle;resizable=0;points=[];" vertex="1" connectable="0" parent="BizChabNb21-beB3vhZF-101">
          <mxGeometry x="-0.0124" relative="1" as="geometry">
            <mxPoint as="offset" />
          </mxGeometry>
        </mxCell>
      </root>
    </mxGraphModel>
  </diagram>
</mxfile>
